<svg width="320" height="106" viewBox="0 0 320 106" fill="none" xmlns="http://www.w3.org/2000/svg">
<path d="M384.423 4.85831C385.971 4.96108 387.267 5.04977 388.258 5.1186L391.395 71.4274C389.77 71.2035 387.534 70.9082 384.794 70.5778C378.779 69.8524 370.326 68.957 360.569 68.276C341.096 66.9169 316.264 66.3989 295.225 69.8604C276.435 72.9517 259.092 78.0904 242.261 83.0771C236.764 84.7059 231.322 86.3184 225.902 87.8381C203.798 94.0355 181.854 98.7647 157.238 97.249C127.887 95.4418 110.085 94.1107 90.4227 90.4972C70.7431 86.8804 49.1445 80.9667 12.2446 69.9321C-19.7359 60.3685 -34.1098 55.846 -40.1318 53.7959V24.0993L20.4669 26.3299C51.0538 27.4559 81.7243 27.3317 112.286 24.6674C131.627 22.9813 154.3 20.6434 174.381 17.6251C184.426 16.1151 193.493 14.7149 201.831 13.4272C232.348 8.71438 253.115 5.50739 276.404 3.93881C299.491 2.38392 306.605 2.4421 319.159 2.54474C322.746 2.57407 326.776 2.60703 331.751 2.60703C342.847 2.60703 357.512 3.27216 369.438 3.94046C375.394 4.27421 380.653 4.60798 384.423 4.85831Z" fill="#BB060A" stroke="#F0F0F0" stroke-width="5"/>
<path d="M-42.6318 27.4715L20.5588 29.7976C51.0807 30.9211 81.6419 30.7954 112.069 28.1428C131.388 26.4586 154.002 24.126 174.009 21.1188C220.722 14.0972 246.448 9.41666 276.236 7.4104C306.025 5.40414 309.41 6.07297 331.751 6.07297C354.091 6.07297 390.65 8.74766 390.65 8.74766L394.035 80.2993C394.035 80.2993 337.129 71.4656 295.63 78.2932C246.142 86.4353 207.157 108.793 157.084 105.71C98.3965 102.097 85.3217 100.361 11.5284 78.2932C-62.2649 56.2258 -42.6318 60.9068 -42.6318 60.9068V27.4715Z" fill="#BB060A"/>
</svg>
