<svg width="1280" height="213" viewBox="0 0 1280 213" fill="none" xmlns="http://www.w3.org/2000/svg">
<path d="M1293.68 9.67348C1294.16 9.69695 1294.6 9.71889 1295.01 9.73925L1304.69 153.808C1303.82 153.72 1302.84 153.623 1301.75 153.516C1296.78 153.028 1289.55 152.348 1280.48 151.579C1262.35 150.039 1236.86 148.139 1207.44 146.694C1148.65 143.805 1073.98 142.724 1010.88 150.031C954.365 156.577 902.294 167.437 851.448 178.041C834.769 181.52 818.223 184.971 801.695 188.233C734.68 201.459 667.699 211.649 592.44 208.387C415.157 200.703 375.826 197.036 152.812 150.09C51.8365 128.834 8.77175 119.25 -8.11334 115.131L-17.1849 66.5H151.988H152.086L152.185 66.4952L312.773 58.5897C316.282 58.417 319.727 58.2656 323.244 58.1202C354.165 56.8416 516.459 49.7251 643.883 36.2423C674.198 33.0347 701.582 30.0577 726.784 27.3179C819.14 17.2774 882.204 10.4215 952.871 7.07116C1022.88 3.75177 1044.55 3.8765 1082.57 4.09537C1093.42 4.1578 1105.59 4.22789 1120.6 4.22789C1154.31 4.22789 1198.78 5.64887 1234.86 7.07237C1252.9 7.78379 1268.82 8.49524 1280.24 9.02882C1285.95 9.29561 1290.53 9.51791 1293.68 9.67348Z" fill="#BB060A" stroke="#fff" stroke-width="8"/>
</svg>
